<svg viewBox="0 0 120 120" xmlns="http://www.w3.org/2000/svg">
  <!-- Blue Circle Background -->
  <circle cx="60" cy="60" r="50" fill="#DEE9FC" />
  
  <!-- Hockey Net -->
  <g transform="translate(25, 35) scale(0.7)">
    <!-- Red Frame -->
    <path d="M10,0 C4.5,0 0,4.5 0,10 V40 C0,45.5 4.5,50 10,50 H90 C95.5,50 100,45.5 100,40 V10 C100,4.5 95.5,0 90,0 Z" fill="none" stroke="#D42929" stroke-width="6" />
    
    <!-- Net Lines - Vertical -->
    <line x1="10" y1="0" x2="10" y2="50" stroke="#BBBBBB" stroke-width="1" />
    <line x1="20" y1="0" x2="20" y2="50" stroke="#BBBBBB" stroke-width="1" />
    <line x1="30" y1="0" x2="30" y2="50" stroke="#BBBBBB" stroke-width="1" />
    <line x1="40" y1="0" x2="40" y2="50" stroke="#BBBBBB" stroke-width="1" />
    <line x1="50" y1="0" x2="50" y2="50" stroke="#BBBBBB" stroke-width="1" />
    <line x1="60" y1="0" x2="60" y2="50" stroke="#BBBBBB" stroke-width="1" />
    <line x1="70" y1="0" x2="70" y2="50" stroke="#BBBBBB" stroke-width="1" />
    <line x1="80" y1="0" x2="80" y2="50" stroke="#BBBBBB" stroke-width="1" />
    <line x1="90" y1="0" x2="90" y2="50" stroke="#BBBBBB" stroke-width="1" />
    
    <!-- Net Lines - Horizontal -->
    <line x1="10" y1="10" x2="90" y2="10" stroke="#BBBBBB" stroke-width="1" />
    <line x1="10" y1="20" x2="90" y2="20" stroke="#BBBBBB" stroke-width="1" />
    <line x1="10" y1="30" x2="90" y2="30" stroke="#BBBBBB" stroke-width="1" />
    <line x1="10" y1="40" x2="90" y2="40" stroke="#BBBBBB" stroke-width="1" />
  </g>
</svg>
